NobileFF.ufo
<glyph name="exclam" format="1">
  <advance width="448"/>
  <unicode hex="0021"/>
  <outline>
    <contour>
      <point x="314" y="399" type="line" smooth="no"/>
      <point x="140" y="399" type="line" smooth="no"/>
      <point x="140" y="1579" type="line" smooth="no"/>
      <point x="314" y="1579" type="line" smooth="no"/>
    </contour>
    <contour>
      <point x="327" y="186" type="line" smooth="no"/>
      <point x="327" y="-16" type="line" smooth="no"/>
      <point x="118" y="-16" type="line" smooth="no"/>
      <point x="118" y="186" type="line" smooth="no"/>
    </contour>
  </outline>
</glyph>
<glyph name="numbersign" format="1">
  <advance width="1056"/>
  <unicode hex="0023"/>
  <outline>
    <contour>
      <point x="425" y="684" type="line" smooth="no"/>
      <point x="608" y="684" type="line" smooth="no"/>
      <point x="634" y="905" type="line" smooth="no"/>
      <point x="452" y="905" type="line" smooth="no"/>
    </contour>
    <contour>
      <point x="599" y="561" type="line" smooth="no"/>
      <point x="413" y="561" type="line" smooth="no"/>
      <point x="380" y="295" type="line" smooth="no"/>
      <point x="239" y="295" type="line" smooth="no"/>
      <point x="272" y="561" type="line" smooth="no"/>
      <point x="106" y="561" type="line" smooth="no"/>
      <point x="106" y="684" type="line" smooth="no"/>
      <point x="282" y="684" type="line" smooth="no"/>
      <point x="309" y="905" type="line" smooth="no"/>
      <point x="134" y="905" type="line" smooth="no"/>
      <point x="134" y="1030" type="line" smooth="no"/>
      <point x="323" y="1030" type="line" smooth="no"/>
      <point x="354" y="1309" type="line" smooth="no"/>
      <point x="493" y="1309" type="line" smooth="no"/>
      <point x="462" y="1030" type="line" smooth="no"/>
      <point x="651" y="1030" type="line" smooth="no"/>
      <point x="679" y="1307" type="line" smooth="no"/>
      <point x="821" y="1307" type="line" smooth="no"/>
      <point x="790" y="1030" type="line" smooth="no"/>
      <point x="950" y="1030" type="line" smooth="no"/>
      <point x="950" y="905" type="line" smooth="no"/>
      <point x="778" y="905" type="line" smooth="no"/>
      <point x="751" y="684" type="line" smooth="no"/>
      <point x="927" y="684" type="line" smooth="no"/>
      <point x="927" y="561" type="line" smooth="no"/>
      <point x="739" y="561" type="line" smooth="no"/>
      <point x="708" y="295" type="line" smooth="no"/>
      <point x="567" y="295" type="line" smooth="no"/>
    </contour>
  </outline>
</glyph>
<glyph name="comma" format="1">
  <advance width="522"/>
  <unicode hex="002c"/>
  <outline>
    <contour>
      <point x="121" y="0" type="line" smooth="no"/>
      <point x="121" y="293" type="line" smooth="no"/>
      <point x="402" y="293" type="line" smooth="no"/>
      <point x="402" y="44" type="line" smooth="yes"/>
      <point x="402" y="-110"/>
      <point x="319" y="-211"/>
      <point x="173" y="-253" type="curve" smooth="no"/>
      <point x="122" y="-159" type="line" smooth="no"/>
      <point x="207" y="-130"/>
      <point x="253" y="-95"/>
      <point x="252" y="0" type="curve" smooth="no"/>
    </contour>
  </outline>
</glyph>
<glyph name="hyphen" format="1">
  <advance width="923"/>
  <unicode hex="002d"/>
  <outline>
    <contour>
      <point x="799" y="508" type="line" smooth="no"/>
      <point x="123" y="508" type="line" smooth="no"/>
      <point x="123" y="665" type="line" smooth="no"/>
      <point x="799" y="665" type="line" smooth="no"/>
    </contour>
  </outline>
</glyph>
<glyph name="seven" format="1">
  <advance width="1114"/>
  <unicode hex="0037"/>
  <outline>
    <contour>
      <point x="952" y="1229" type="line" smooth="no"/>
      <point x="1009" y="1107" type="line" smooth="no"/>
      <point x="437" y="-176" type="line" smooth="no"/>
      <point x="269" y="-100" type="line" smooth="no"/>
      <point x="794" y="1074" type="line" smooth="no"/>
      <point x="116" y="1074" type="line" smooth="no"/>
      <point x="116" y="1229" type="line" smooth="no"/>
    </contour>
  </outline>
</glyph>
<glyph name="equal" format="1">
  <advance width="835"/>
  <unicode hex="003d"/>
  <outline>
    <contour>
      <point x="711" y="280" type="line" smooth="no"/>
      <point x="123" y="280" type="line" smooth="no"/>
      <point x="123" y="411" type="line" smooth="no"/>
      <point x="711" y="411" type="line" smooth="no"/>
    </contour>
    <contour>
      <point x="711" y="508" type="line" smooth="no"/>
      <point x="123" y="508" type="line" smooth="no"/>
      <point x="123" y="639" type="line" smooth="no"/>
      <point x="711" y="639" type="line" smooth="no"/>
    </contour>
  </outline>
</glyph>
<glyph name="greater" format="1">
  <advance width="694"/>
  <unicode hex="003e"/>
  <outline>
    <contour>
      <point x="730" y="663" type="line" smooth="no"/>
      <point x="75" y="60" type="line" smooth="no"/>
      <point x="-27" y="170" type="line" smooth="no"/>
      <point x="524" y="663" type="line" smooth="no"/>
      <point x="-27" y="1156" type="line" smooth="no"/>
      <point x="75" y="1266" type="line" smooth="no"/>
    </contour>
  </outline>
</glyph>
<glyph name="E" format="1">
  <advance width="1163"/>
  <unicode hex="0045"/>
  <outline>
    <contour>
      <point x="1123" y="0" type="line" smooth="no"/>
      <point x="140" y="0" type="line" smooth="no"/>
      <point x="140" y="1579" type="line" smooth="no"/>
      <point x="1110" y="1579" type="line" smooth="no"/>
      <point x="1110" y="1436" type="line" smooth="no"/>
      <point x="334" y="1436" type="line" smooth="no"/>
      <point x="334" y="891" type="line" smooth="no"/>
      <point x="1012" y="891" type="line" smooth="no"/>
      <point x="1012" y="776" type="line" smooth="no"/>
      <point x="334" y="776" type="line" smooth="no"/>
      <point x="334" y="143" type="line" smooth="no"/>
      <point x="1123" y="143" type="line" smooth="no"/>
    </contour>
  </outline>
</glyph>
<glyph name="J" format="1">
  <advance width="715"/>
  <unicode hex="004a"/>
  <outline>
    <contour>
      <point x="108" y="-90" type="curve" smooth="no"/>
      <point x="61" y="37" type="line" smooth="no"/>
      <point x="369" y="83"/>
      <point x="383" y="203"/>
      <point x="383" y="479" type="curve" smooth="yes"/>
      <point x="383" y="1579" type="line" smooth="no"/>
      <point x="575" y="1579" type="line" smooth="no"/>
      <point x="575" y="514" type="line" smooth="yes"/>
      <point x="575" y="168"/>
      <point x="516" y="-90"/>
    </contour>
  </outline>
</glyph>
<glyph name="K" format="1">
  <advance width="1339"/>
  <unicode hex="004b"/>
  <outline>
    <contour>
      <point x="334" y="747" type="line" smooth="no"/>
      <point x="334" y="0" type="line" smooth="no"/>
      <point x="140" y="0" type="line" smooth="no"/>
      <point x="140" y="1579" type="line" smooth="no"/>
      <point x="334" y="1579" type="line" smooth="no"/>
      <point x="334" y="857" type="line" smooth="no"/>
      <point x="557" y="857" type="line" smooth="no"/>
      <point x="1029" y="1579" type="line" smooth="no"/>
      <point x="1240" y="1579" type="line" smooth="no"/>
      <point x="732" y="805" type="line" smooth="no"/>
      <point x="1307" y="0" type="line" smooth="no"/>
      <point x="1084" y="0" type="line" smooth="no"/>
      <point x="567" y="747" type="line" smooth="no"/>
    </contour>
  </outline>
</glyph>
<glyph name="T" format="1">
  <advance width="1146"/>
  <unicode hex="0054"/>
  <outline>
    <contour>
      <point x="1127" y="1436" type="line" smooth="no"/>
      <point x="669" y="1436" type="line" smooth="no"/>
      <point x="669" y="0" type="line" smooth="no"/>
      <point x="479" y="0" type="line" smooth="no"/>
      <point x="479" y="1436" type="line" smooth="no"/>
      <point x="19" y="1436" type="line" smooth="no"/>
      <point x="19" y="1579" type="line" smooth="no"/>
      <point x="1127" y="1579" type="line" smooth="no"/>
    </contour>
  </outline>
</glyph>
<glyph name="V" format="1">
  <advance width="1348"/>
  <unicode hex="0056"/>
  <outline>
    <contour>
      <point x="553" y="0" type="line" smooth="no"/>
      <point x="57" y="1579" type="line" smooth="no"/>
      <point x="241" y="1579" type="line" smooth="no"/>
      <point x="675" y="180" type="line" smooth="no"/>
      <point x="1109" y="1579" type="line" smooth="no"/>
      <point x="1291" y="1579" type="line" smooth="no"/>
      <point x="797" y="0" type="line" smooth="no"/>
    </contour>
  </outline>
</glyph>
<glyph name="W" format="1">
  <advance width="1995"/>
  <unicode hex="0057"/>
  <outline>
    <contour>
      <point x="1135" y="1489" type="line" smooth="no"/>
      <point x="1429" y="175" type="line" smooth="no"/>
      <point x="1739" y="1579" type="line" smooth="no"/>
      <point x="1919" y="1579" type="line" smooth="no"/>
      <point x="1563" y="0" type="line" smooth="no"/>
      <point x="1297" y="0" type="line" smooth="no"/>
      <point x="998" y="1333" type="line" smooth="no"/>
      <point x="699" y="0" type="line" smooth="no"/>
      <point x="432" y="0" type="line" smooth="no"/>
      <point x="76" y="1579" type="line" smooth="no"/>
      <point x="257" y="1579" type="line" smooth="no"/>
      <point x="567" y="175" type="line" smooth="no"/>
      <point x="861" y="1489" type="line" smooth="no"/>
    </contour>
  </outline>
</glyph>
<glyph name="Y" format="1">
  <advance width="1316"/>
  <unicode hex="0059"/>
  <outline>
    <contour>
      <point x="658" y="748" type="curve" smooth="no"/>
      <point x="1076" y="1579" type="line" smooth="no"/>
      <point x="1267" y="1579" type="line" smooth="no"/>
      <point x="753" y="557" type="line" smooth="no"/>
      <point x="753" y="0" type="line" smooth="no"/>
      <point x="563" y="0" type="line" smooth="no"/>
      <point x="563" y="557" type="line" smooth="no"/>
      <point x="49" y="1579" type="line" smooth="no"/>
      <point x="246" y="1579" type="line" smooth="no"/>
      <point x="380" y="1300"/>
      <point x="517" y="1023"/>
    </contour>
  </outline>
</glyph>
<glyph name="underscore" format="1">
  <advance width="1187"/>
  <unicode hex="005f"/>
  <outline>
    <contour>
      <point x="1063" y="-111" type="line" smooth="no"/>
      <point x="123" y="-111" type="line" smooth="no"/>
      <point x="123" y="33" type="line" smooth="no"/>
      <point x="1063" y="33" type="line" smooth="no"/>
    </contour>
  </outline>
</glyph>
<glyph name="grave" format="1">
  <advance width="430"/>
  <unicode hex="0060"/>
  <outline>
    <contour>
      <point x="453" y="328" type="line" smooth="no"/>
      <point x="39" y="759" type="line" smooth="no"/>
      <point x="200" y="860" type="line" smooth="no"/>
      <point x="510" y="354" type="line" smooth="no"/>
    </contour>
  </outline>
</glyph>
<glyph name="c" format="1">
  <advance width="1091"/>
  <unicode hex="0063"/>
  <outline>
    <contour>
      <point x="292" y="580" type="curve" smooth="yes"/>
      <point x="292" y="360"/>
      <point x="359" y="117"/>
      <point x="615" y="117" type="curve" smooth="yes"/>
      <point x="736" y="117"/>
      <point x="854" y="155"/>
      <point x="944" y="245" type="curve" smooth="no"/>
      <point x="1001" y="111" type="line" smooth="no"/>
      <point x="887" y="31"/>
      <point x="752" y="-20"/>
      <point x="610" y="-20" type="curve" smooth="yes"/>
      <point x="260" y="-20"/>
      <point x="102" y="260"/>
      <point x="102" y="580" type="curve" smooth="yes"/>
      <point x="102" y="903"/>
      <point x="260" y="1190"/>
      <point x="613" y="1190" type="curve" smooth="yes"/>
      <point x="754" y="1190"/>
      <point x="887" y="1138"/>
      <point x="1001" y="1057" type="curve" smooth="no"/>
      <point x="944" y="924" type="line" smooth="no"/>
      <point x="856" y="1000"/>
      <point x="746" y="1040"/>
      <point x="630" y="1040" type="curve" smooth="yes"/>
      <point x="360" y="1040"/>
      <point x="292" y="810"/>
    </contour>
  </outline>
</glyph>
<glyph name="f" format="1">
  <advance width="792"/>
  <unicode hex="0066"/>
  <outline>
    <contour>
      <point x="599" y="1516" type="curve" smooth="yes"/>
      <point x="384" y="1516"/>
      <point x="434" y="1332"/>
      <point x="434" y="1169" type="curve" smooth="no"/>
      <point x="782" y="1169" type="line" smooth="no"/>
      <point x="782" y="1064" type="line" smooth="no"/>
      <point x="434" y="1064" type="line" smooth="no"/>
      <point x="434" y="0" type="line" smooth="no"/>
      <point x="244" y="0" type="line" smooth="no"/>
      <point x="244" y="1064" type="line" smooth="no"/>
      <point x="49" y="1064" type="line" smooth="no"/>
      <point x="49" y="1169" type="line" smooth="no"/>
      <point x="244" y="1169" type="line" smooth="no"/>
      <point x="244" y="1421"/>
      <point x="271" y="1659"/>
      <point x="575" y="1659" type="curve" smooth="yes"/>
      <point x="656" y="1659"/>
      <point x="752" y="1615"/>
      <point x="817" y="1567" type="curve" smooth="no"/>
      <point x="754" y="1442" type="line" smooth="no"/>
      <point x="712" y="1480"/>
      <point x="658" y="1516"/>
    </contour>
  </outline>
</glyph>
<glyph name="k" format="1">
  <advance width="1120"/>
  <unicode hex="006b"/>
  <outline>
    <contour>
      <point x="1072" y="1169" type="line" smooth="no"/>
      <point x="561" y="658" type="line" smooth="no"/>
      <point x="1123" y="0" type="line" smooth="no"/>
      <point x="898" y="0" type="line" smooth="no"/>
      <point x="422" y="565" type="line" smooth="no"/>
      <point x="316" y="459" type="line" smooth="no"/>
      <point x="316" y="0" type="line" smooth="no"/>
      <point x="126" y="0" type="line" smooth="no"/>
      <point x="126" y="1579" type="line" smooth="no"/>
      <point x="316" y="1614" type="line" smooth="no"/>
      <point x="316" y="643" type="line" smooth="no"/>
      <point x="841" y="1169" type="line" smooth="no"/>
    </contour>
  </outline>
</glyph>
<glyph name="m" format="1">
  <advance width="1903"/>
  <unicode hex="006d"/>
  <outline>
    <contour>
      <point x="1008" y="967" type="curve" smooth="no"/>
      <point x="1100" y="1101"/>
      <point x="1265" y="1190"/>
      <point x="1428" y="1190" type="curve" smooth="yes"/>
      <point x="1677" y="1190"/>
      <point x="1784" y="992"/>
      <point x="1784" y="766" type="curve" smooth="yes"/>
      <point x="1784" y="0" type="line" smooth="no"/>
      <point x="1594" y="0" type="line" smooth="no"/>
      <point x="1594" y="768" type="line" smooth="yes"/>
      <point x="1594" y="912"/>
      <point x="1571" y="1047"/>
      <point x="1400" y="1047" type="curve" smooth="yes"/>
      <point x="1257" y="1047"/>
      <point x="1133" y="957"/>
      <point x="1038" y="858" type="curve" smooth="no"/>
      <point x="1038" y="0" type="line" smooth="no"/>
      <point x="848" y="0" type="line" smooth="no"/>
      <point x="848" y="768" type="line" smooth="yes"/>
      <point x="848" y="912"/>
      <point x="828" y="1047"/>
      <point x="656" y="1047" type="curve" smooth="yes"/>
      <point x="524" y="1047"/>
      <point x="404" y="966"/>
      <point x="316" y="878" type="curve" smooth="no"/>
      <point x="316" y="0" type="line" smooth="no"/>
      <point x="126" y="0" type="line" smooth="no"/>
      <point x="126" y="1169" type="line" smooth="no"/>
      <point x="267" y="1169" type="line" smooth="no"/>
      <point x="290" y="982" type="line" smooth="no"/>
      <point x="385" y="1112"/>
      <point x="527" y="1190"/>
      <point x="687" y="1190" type="curve" smooth="yes"/>
      <point x="837" y="1190"/>
      <point x="961" y="1112"/>
    </contour>
  </outline>
</glyph>
<glyph name="s" format="1">
  <advance width="1007"/>
  <unicode hex="0073"/>
  <outline>
    <contour>
      <point x="153" y="237" type="line" smooth="no"/>
      <point x="246" y="174"/>
      <point x="383" y="125"/>
      <point x="492" y="125" type="curve" smooth="yes"/>
      <point x="604" y="125"/>
      <point x="746" y="152"/>
      <point x="746" y="310" type="curve" smooth="yes"/>
      <point x="746" y="454"/>
      <point x="612" y="493"/>
      <point x="456" y="543" type="curve" smooth="yes"/>
      <point x="264" y="605"/>
      <point x="86" y="672"/>
      <point x="86" y="877" type="curve" smooth="yes"/>
      <point x="86" y="891" type="line" smooth="yes"/>
      <point x="94" y="1102"/>
      <point x="289" y="1190"/>
      <point x="483" y="1190" type="curve" smooth="yes"/>
      <point x="617" y="1190"/>
      <point x="784" y="1147"/>
      <point x="865" y="1079" type="curve" smooth="no"/>
      <point x="807" y="947" type="line" smooth="no"/>
      <point x="717" y="1012"/>
      <point x="608" y="1042"/>
      <point x="494" y="1042" type="curve" smooth="yes"/>
      <point x="385" y="1042"/>
      <point x="251" y="1020"/>
      <point x="250" y="885" type="curve" smooth="no"/>
      <point x="250" y="884" type="line" smooth="yes"/>
      <point x="250" y="785"/>
      <point x="379" y="742"/>
      <point x="528" y="696" type="curve" smooth="yes"/>
      <point x="730" y="634"/>
      <point x="918" y="556"/>
      <point x="918" y="322" type="curve" smooth="yes"/>
      <point x="918" y="309" type="line" smooth="yes"/>
      <point x="911" y="64"/>
      <point x="705" y="-20"/>
      <point x="480" y="-20" type="curve" smooth="yes"/>
      <point x="371" y="-20"/>
      <point x="181" y="31"/>
      <point x="96" y="99" type="curve" smooth="no"/>
    </contour>
  </outline>
</glyph>
<glyph name="x" format="1">
  <advance width="1074"/>
  <unicode hex="0078"/>
  <outline>
    <contour>
      <point x="38" y="1169" type="line" smooth="no"/>
      <point x="234" y="1169" type="line" smooth="no"/>
      <point x="536" y="712" type="line" smooth="no"/>
      <point x="840" y="1169" type="line" smooth="no"/>
      <point x="1036" y="1169" type="line" smooth="no"/>
      <point x="638" y="584" type="line" smooth="no"/>
      <point x="1028" y="0" type="line" smooth="no"/>
      <point x="834" y="0" type="line" smooth="no"/>
      <point x="542" y="467" type="line" smooth="no"/>
      <point x="240" y="0" type="line" smooth="no"/>
      <point x="44" y="0" type="line" smooth="no"/>
      <point x="441" y="584" type="line" smooth="no"/>
    </contour>
  </outline>
</glyph>
<glyph name="yen" format="1">
  <advance width="1060"/>
  <unicode hex="00a5"/>
  <outline>
    <contour>
      <point x="398" y="688" type="line" smooth="no"/>
      <point x="-85" y="1579" type="line" smooth="no"/>
      <point x="109" y="1579" type="line" smooth="no"/>
      <point x="529" y="788" type="line" smooth="no"/>
      <point x="949" y="1579" type="line" smooth="no"/>
      <point x="1143" y="1579" type="line" smooth="no"/>
      <point x="662" y="688" type="line" smooth="no"/>
      <point x="925" y="688" type="line" smooth="no"/>
      <point x="925" y="584" type="line" smooth="no"/>
      <point x="629" y="584" type="line" smooth="no"/>
      <point x="629" y="488" type="line" smooth="no"/>
      <point x="925" y="488" type="line" smooth="no"/>
      <point x="925" y="389" type="line" smooth="no"/>
      <point x="629" y="389" type="line" smooth="no"/>
      <point x="629" y="0" type="line" smooth="no"/>
      <point x="439" y="0" type="line" smooth="no"/>
      <point x="439" y="389" type="line" smooth="no"/>
      <point x="137" y="389" type="line" smooth="no"/>
      <point x="137" y="488" type="line" smooth="no"/>
      <point x="439" y="488" type="line" smooth="no"/>
      <point x="439" y="584" type="line" smooth="no"/>
      <point x="137" y="584" type="line" smooth="no"/>
      <point x="137" y="688" type="line" smooth="no"/>
    </contour>
  </outline>
</glyph>
<glyph name="logicalnot" format="1">
  <advance width="1452"/>
  <unicode hex="00ac"/>
  <outline>
    <contour>
      <point x="1355" y="338" type="line" smooth="no"/>
      <point x="1179" y="338" type="line" smooth="no"/>
      <point x="1179" y="1023" type="line" smooth="no"/>
      <point x="1" y="1023" type="line" smooth="no"/>
      <point x="1" y="1174" type="line" smooth="no"/>
      <point x="1355" y="1174" type="line" smooth="no"/>
    </contour>
  </outline>
</glyph>
<glyph name="macron" format="1">
  <advance width="836"/>
  <unicode hex="00af"/>
  <outline>
    <contour>
      <point x="770" y="98" type="line" smooth="no"/>
      <point x="88" y="98" type="line" smooth="no"/>
      <point x="88" y="215" type="line" smooth="no"/>
      <point x="770" y="215" type="line" smooth="no"/>
    </contour>
  </outline>
</glyph>
<glyph name="florin" format="1">
  <advance width="898"/>
  <unicode hex="0192"/>
  <outline>
    <contour>
      <point x="617" y="1516" type="curve" smooth="yes"/>
      <point x="402" y="1516"/>
      <point x="452" y="1332"/>
      <point x="452" y="1169" type="curve" smooth="no"/>
      <point x="800" y="1169" type="line" smooth="no"/>
      <point x="800" y="1064" type="line" smooth="no"/>
      <point x="452" y="1064" type="line" smooth="no"/>
      <point x="452" y="0" type="line" smooth="no"/>
      <point x="262" y="0" type="line" smooth="no"/>
      <point x="262" y="1064" type="line" smooth="no"/>
      <point x="67" y="1064" type="line" smooth="no"/>
      <point x="67" y="1169" type="line" smooth="no"/>
      <point x="262" y="1169" type="line" smooth="no"/>
      <point x="262" y="1421"/>
      <point x="289" y="1659"/>
      <point x="593" y="1659" type="curve" smooth="yes"/>
      <point x="674" y="1659"/>
      <point x="770" y="1615"/>
      <point x="835" y="1567" type="curve" smooth="no"/>
      <point x="772" y="1442" type="line" smooth="no"/>
      <point x="730" y="1480"/>
      <point x="676" y="1516"/>
    </contour>
  </outline>
</glyph>
<glyph name="circumflex" format="1">
  <advance width="877"/>
  <unicode hex="02c6"/>
  <outline>
    <contour>
      <point x="438" y="819" type="line" smooth="no"/>
      <point x="216" y="432" type="line" smooth="no"/>
      <point x="98" y="510" type="line" smooth="no"/>
      <point x="390" y="964" type="line" smooth="no"/>
      <point x="486" y="964" type="line" smooth="no"/>
      <point x="778" y="510" type="line" smooth="no"/>
      <point x="660" y="432" type="line" smooth="no"/>
    </contour>
  </outline>
</glyph>
<glyph name="breve" format="1">
  <advance width="565"/>
  <unicode hex="02d8"/>
  <outline>
    <contour>
      <point x="426" y="1139" type="curve" smooth="no"/>
      <point x="523" y="1139" type="line" smooth="no"/>
      <point x="523" y="1003"/>
      <point x="424" y="899"/>
      <point x="287" y="899" type="curve" smooth="yes"/>
      <point x="148" y="899"/>
      <point x="43" y="999"/>
      <point x="43" y="1139" type="curve" smooth="no"/>
      <point x="140" y="1139" type="line" smooth="no"/>
      <point x="140" y="1058"/>
      <point x="202" y="990"/>
      <point x="285" y="990" type="curve" smooth="yes"/>
      <point x="369" y="990"/>
      <point x="426" y="1057"/>
    </contour>
  </outline>
</glyph>
<glyph name="hungarumlaut" format="1">
  <advance width="845"/>
  <unicode hex="02dd"/>
  <outline>
    <contour>
      <point x="96" y="328" type="line" smooth="no"/>
      <point x="39" y="354" type="line" smooth="no"/>
      <point x="349" y="860" type="line" smooth="no"/>
      <point x="510" y="759" type="line" smooth="no"/>
    </contour>
    <contour>
      <point x="408" y="328" type="line" smooth="no"/>
      <point x="351" y="354" type="line" smooth="no"/>
      <point x="661" y="860" type="line" smooth="no"/>
      <point x="822" y="759" type="line" smooth="no"/>
    </contour>
  </outline>
</glyph>
<glyph name="uni203E" format="1">
  <advance width="929"/>
  <unicode hex="203e"/>
  <outline>
    <contour>
      <point x="805" y="122" type="line" smooth="no"/>
      <point x="123" y="122" type="line" smooth="no"/>
      <point x="123" y="239" type="line" smooth="no"/>
      <point x="805" y="239" type="line" smooth="no"/>
    </contour>
  </outline>
</glyph>
